#!OML:ASF I:\Actors\actors\Patient Classification 1\Patient 1\Session 1\Subject1.ASF
:FULLY-SPECIFIED
:DEGREES
505
root 0.716976 17.4127 8.59146 3.39296 2.79843 -8.10555
lowerback -0.254052 2.37108 6.79863
upperback -8.41136 3.65808 2.02062
thorax -8.46386 1.40531 -1.89998
lowerneck -12.9858 -7.27627 -4.45295
upperneck 32.5059 -11.7358 6.17735
head 13.8711 -4.8756 1.35402
rclavicle 6.95746e-015 2.08724e-014
rhumerus -23.5987 20.0042 -90.556
rradius 103.871
rwrist -30.3757
rhand 4.08637 -65.4211
rfingers 7.12502
rthumb 29.4982 93.098
lclavicle 6.95746e-015 2.08724e-014
lhumerus -48.7758 21.5239 68.7951
lradius 90.7091
lwrist 56.0497
lhand -30.0721 11.7762
lfingers 7.12502
lthumb -3.3871 41.7291
rfemur -3.61109 16.9005 24.9381
rtibia 10.9342
rfoot -14.8933 -23.9184
rtoes 1.25371
lfemur -0.430743 -25.7829 -8.64215
ltibia 3.52783
lfoot -8.94839 29.6682
ltoes -13.1002
506
root 0.724509 17.4143 8.60354 3.41253 2.84021 -8.0797
lowerback -0.296451 2.27757 6.6046
upperback -8.47521 3.52325 2.00945
thorax -8.5276 1.34942 -1.79597
lowerneck -12.947 -7.48076 -4.67001
upperneck 32.1127 -11.9736 6.25008
head 13.7291 -5.0111 1.37746
rclavicle -1.95803e-014 -1.61016e-014
rhumerus -25.8123 20.3863 -91.3803
rradius 104.642
rwrist -30.4495
rhand 3.92145 -65.4904
rfingers 7.12502
rthumb 29.3407 93.195
lclavicle -1.95803e-014 -1.61016e-014
lhumerus -49.3831 21.9166 68.6871
lradius 90.8513
lwrist 56.1779
lhand -30.0479 11.5503
lfingers 7.12502
lthumb -3.36374 41.5035
rfemur -3.528 16.9492 24.8952
rtibia 10.8354
rfoot -14.9228 -24.0028
rtoes 1.41569
lfemur -0.400292 -25.8814 -8.71573
ltibia 3.49891
lfoot -9.14586 29.7503
ltoes -12.3341
507
root 0.73154 17.4155 8.61131 3.46493 2.83508 -8.05398
lowerback -0.245051 2.21794 6.4266
upperback -8.58289 3.44567 1.99274
thorax -8.68953 1.31656 -1.71477
lowerneck -13.0095 -7.54014 -4.54704
upperneck 31.8635 -12.0136 6.08571
head 13.6131 -5.04262 1.28267
rclavicle -4.87022e-015 -4.17448e-015
rhumerus -28.3382 20.2607 -92.3958
rradius 105.498
rwrist -30.85
rhand 3.43962 -65.6528
rfingers 7.12502
rthumb 28.8806 93.4371
lclavicle -4.87022e-015 -4.17448e-015
lhumerus -49.9735 22.1423 68.5709
lradius 90.9026
lwrist 56.3081
lhand -30.0253 11.5593
lfingers 7.12502
lthumb -3.34185 41.5128
rfemur -3.53104 16.9906 24.8344
rtibia 10.7942
rfoot -14.9146 -24.0246
rtoes 1.44493
lfemur -0.428389 -25.8915 -8.76162
ltibia 3.49714
lfoot -9.3327 29.7725
ltoes -11.5605
508
root 0.738655 17.4158 8.61755 3.49142 2.76565 -8.06043
lowerback -0.163589 2.16487 6.29952
upperback -8.64433 3.38005 1.99979
thorax -8.81632 1.28888 -1.63753
lowerneck -13.1652 -7.49457 -4.54326
upperneck 31.7636 -11.963 6.16776
head 13.6066 -5.00812 1.31591
rclavicle -2.90723e-014 -2.127e-014
rhumerus -30.8947 19.8897 -93.5148
rradius 106.363
rwrist -31.8445
rhand 2.28055 -65.7443
rfingers 7.12502
rthumb 27.7729 93.7125
lclavicle -2.90723e-014 -2.127e-014
lhumerus -50.4465 22.4682 68.4411
lradius 90.8739
lwrist 56.3454
lhand -29.9029 11.8394
lfingers 7.12502
lthumb -3.22366 41.7948
rfemur -3.53485 17.0237 24.8142
rtibia 10.7904
rfoot -14.9165 -23.971
rtoes 1.50954
lfemur -0.40687 -25.8317 -8.79334
ltibia 3.50401
lfoot -9.36852 29.7732
ltoes -11.2989
509
root 0.746191 17.4151 8.62467 3.51016 2.67998 -8.12534
lowerback -0.106771 2.10921 6.26867
upperback -8.67578 3.31237 2.02476
thorax -8.89267 1.25593 -1.59248
lowerneck -13.2866 -7.4658 -4.59149
upperneck 31.6282 -11.9339 6.28929
head 13.5859 -4.98625 1.37078
rclavicle -2.28602e-014 -1.11319e-014
rhumerus -33.4571 19.064 -94.591
rradius 106.961
rwrist -32.0179
rhand 2.59398 -65.9219
rfingers 7.12502
rthumb 28.0725 93.8414
lclavicle -2.28602e-014 -1.11319e-014
lhumerus -50.839 22.767 68.2957
lradius 90.7841
lwrist 56.3747
lhand -29.8027 12.1874
lfingers 7.12502
lthumb -3.1269 42.1442
rfemur -3.52066 17.0714 24.8688
rtibia 10.7674
rfoot -14.9087 -23.9147
rtoes 1.56444
lfemur -0.345989 -25.8009 -8.76708
ltibia 3.47909
lfoot -9.31491 29.8098
ltoes -11.3713
510
root 0.754674 17.4144 8.63148 3.564 2.6231 -8.20445
lowerback -0.0972834 2.06011 6.29178
upperback -8.73037 3.25249 2.03745
thorax -8.96357 1.22217 -1.58885
lowerneck -13.4813 -7.49882 -4.90182
upperneck 31.6179 -11.9821 6.54018
head 13.672 -5.0059 1.50329
rclavicle -1.63997e-015 -3.12092e-014
rhumerus -35.2567 18.6099 -95.3389
rradius 107.036
rwrist -31.555
rhand 3.80351 -66.3576
rfingers 7.12502
rthumb 29.2281 94.0819
lclavicle -1.63997e-015 -3.12092e-014
lhumerus -51.1821 22.8876 68.1537
lradius 90.6518
lwrist 56.4516
lhand -29.8869 12.5632
lfingers 7.12502
lthumb -3.20823 42.5188
rfemur -3.53058 17.1403 24.9292
rtibia 10.7113
rfoot -14.8625 -23.9185
rtoes 1.37578
lfemur -0.366706 -25.7477 -8.68585
ltibia 3.48876
lfoot -9.25635 29.8032
ltoes -11.5286
511
root 0.762944 17.4144 8.63724 3.62341 2.51049 -8.22753
lowerback -0.0678902 2.01063 6.23661
upperback -8.79827 3.19038 2.04537
thorax -9.06381 1.19191 -1.54778
lowerneck -13.5053 -7.38845 -4.69067
upperneck 31.3985 -11.8201 6.44833
head 13.5459 -4.92907 1.45872
rclavicle -2.76311e-014 9.93923e-016
rhumerus -36.5322 19.0913 -95.9049
rradius 106.923
rwrist -31.5264
rhand 3.80911 -66.3699
rfingers 7.12502
rthumb 29.2334 94.0933
lclavicle -2.76311e-014 9.93923e-016
lhumerus -51.5073 22.979 67.9533
lradius 90.5167
lwrist 56.532
lhand -30.0135 12.8175
lfingers 7.12502
lthumb -3.33053 42.7712
rfemur -3.56055 17.2206 24.9174
rtibia 10.6772
rfoot -14.811 -23.8933
rtoes 1.06313
lfemur -0.382457 -25.6999 -8.68039
ltibia 3.51003
lfoot -9.25392 29.8616
ltoes -11.5094
512
root 0.770105 17.4149 8.64291 3.65365 2.33754 -8.2042
lowerback -0.00673739 1.96784 6.12311
upperback -8.81717 3.13419 2.05896
thorax -9.12988 1.17103 -1.46941
lowerneck -13.6491 -7.28603 -4.62778
upperneck 31.2863 -11.6968 6.52534
head 13.5211 -4.85708 1.49338
rclavicle 4.56211e-014 2.04748e-014
rhumerus -37.7855 19.1947 -96.5169
rradius 106.943
rwrist -31.4113
rhand 3.02654 -65.7591
rfingers 7.12502
rthumb 28.4859 93.6101
lclavicle 4.56211e-014 2.04748e-014
lhumerus -51.7036 23.162 67.7886
lradius 90.3403
lwrist 56.4982
lhand -30.0835 12.8028
lfingers 7.12502
lthumb -3.39807 42.7554
rfemur -3.571 17.2862 24.8602
rtibia 10.6602
rfoot -14.7577 -23.8044
rtoes 0.750698
lfemur -0.296478 -25.742 -8.77934
ltibia 3.48055
lfoot -9.34248 30.0535
ltoes -11.2453
513
root 0.776738 17.4164 8.64764 3.69586 2.19535 -8.17209
lowerback 0.0625753 1.94115 6.0364
upperback -8.83287 3.09991 2.05213
thorax -9.19344 1.15812 -1.42915
lowerneck -13.8958 -7.29867 -4.92479
upperneck 31.2923 -11.7363 6.83417
head 13.6278 -4.86091 1.6467
rclavicle 2.14687e-014 1.39149e-015
rhumerus -38.9401 18.7594 -97.0625
rradius 106.977
rwrist -31.1639
rhand 3.00556 -65.4638
rfingers 7.12502
rthumb 28.4659 93.3182
lclavicle 2.14687e-014 1.39149e-015
lhumerus -51.8256 23.2922 67.6494
lradius 90.1793
lwrist 56.3817
lhand -30.0758 12.7551
lfingers 7.12502
lthumb -3.39062 42.7079
rfemur -3.60256 17.3215 24.7863
rtibia 10.6372
rfoot -14.6975 -23.7215
rtoes 0.407985
lfemur -0.237449 -25.8232 -8.87436
ltibia 3.45341
lfoot -9.47065 30.2382
ltoes -10.9441
514
root 0.782409 17.4183 8.65114 3.78571 2.05308 -8.14403
lowerback 0.0900341 1.9529 5.9828
upperback -8.90068 3.11579 2.00878
thorax -9.28391 1.16425 -1.44845
lowerneck -13.866 -7.24478 -4.9538
upperneck 31.0817 -11.6462 6.89564
head 13.53 -4.82456 1.69095
rclavicle 4.87022e-015 -3.10104e-014
rhumerus -40.1978 17.7498 -97.635
rradius 107.071
rwrist -30.7899
rhand 4.5523 -65.9658
rfingers 7.12502
rthumb 29.9429 93.5634
lclavicle 4.87022e-015 -3.10104e-014
lhumerus -52.003 23.2325 67.4295
lradius 90.1202
lwrist 56.3727
lhand -30.0697 12.8486
lfingers 7.12502
lthumb -3.38479 42.8014
rfemur -3.70061 17.3449 24.6967
rtibia 10.6198
rfoot -14.6381 -23.6433
rtoes 0.271426
lfemur -0.242745 -25.8819 -8.92838
ltibia 3.42614
lfoot -9.57686 30.4013
ltoes -10.6142
515
root 0.78709 17.4199 8.65436 3.86302 1.85153 -8.13736
lowerback 0.116063 1.98896 5.94878
upperback -8.96962 3.16578 1.974
thorax -9.37251 1.18603 -1.472
lowerneck -13.8266 -7.2496 -4.86176
upperneck 30.9155 -11.6438 6.8393
head 13.4385 -4.82699 1.65449
rclavicle 8.89561e-015 4.05521e-014
rhumerus -40.6735 18.2625 -97.8892
rradius 106.929
rwrist -31.4765
rhand 5.02984 -66.1351
rfingers 7.12502
rthumb 30.3984 93.6494
lclavicle 8.89561e-015 4.05521e-014
lhumerus -52.1665 23.1645 67.1865
lradius 90.0782
lwrist 56.5581
lhand -30.0809 12.9256
lfingers 7.12502
lthumb -3.3956 42.8784
rfemur -3.80239 17.357 24.6336
rtibia 10.6303
rfoot -14.5781 -23.4784
rtoes 0.271144
lfemur -0.178717 -25.9348 -8.98141
ltibia 3.35392
lfoot -9.7294 30.588
ltoes -9.96791
516
root 0.791783 17.4201 8.65845 3.92473 1.64983 -8.13959
lowerback 0.135203 2.02806 5.93787
upperback -9.01067 3.21819 1.9328
thorax -9.42431 1.20829 -1.51481
lowerneck -13.8558 -7.27436 -4.88064
upperneck 30.7773 -11.6739 6.878
head 13.3924 -4.841 1.66544
rclavicle -1.12313e-014 1.39149e-015
rhumerus -41.0799 18.3642 -98.1372
rradius 106.826
rwrist -31.7287
rhand 5.22075 -65.9622
rfingers 7.12502
rthumb 30.5805 93.4428
lclavicle -1.12313e-014 1.39149e-015
lhumerus -52.2574 23.1276 66.9655
lradius 90.0444
lwrist 56.8031
lhand -30.0613 12.9035
lfingers 7.12502
lthumb -3.37662 42.8565
rfemur -3.88064 17.3713 24.5882
rtibia 10.6368
rfoot -14.5033 -23.2902
rtoes 0.0414736
lfemur -0.092862 -25.9861 -9.03731
ltibia 3.27003
lfoot -9.82105 30.7836
ltoes -9.59693
517
root 0.796207 17.4195 8.66264 4.02497 1.48447 -8.07676
lowerback 0.0887609 2.05765 5.8775
upperback -9.04083 3.24726 1.86971
thorax -9.42673 1.22372 -1.54905
lowerneck -13.93 -7.30319 -4.9747
upperneck 30.6717 -11.7098 6.97127
head 13.3805 -4.85656 1.70748
rclavicle 3.47376e-014 7.95139e-015
rhumerus -41.3418 18.3025 -98.3202
rradius 106.77
rwrist -31.6211
rhand 5.57274 -66.1141
rfingers 7.12502
rthumb 30.9161 93.5316
lclavicle 3.47376e-014 7.95139e-015
lhumerus -52.3228 23.0871 66.7679
lradius 90.0464
lwrist 56.9149
lhand -30.1288 12.8333
lfingers 7.12502
lthumb -3.44182 42.7853
rfemur -3.98977 17.423 24.4596
rtibia 10.6247
rfoot -14.4085 -23.2042
rtoes -0.140075
lfemur -0.0928186 -26.0315 -9.13612
ltibia 3.2102
lfoot -9.80916 30.9881
ltoes -9.56895
518
root 0.800268 17.4193 8.66615 4.10128 1.33005 -8.02187
lowerback 0.0826818 2.05157 5.82878
upperback -9.07348 3.2346 1.83435
thorax -9.46021 1.21801 -1.55888
lowerneck -13.9893 -7.24963 -4.99095
upperneck 30.5819 -11.6137 6.96972
head 13.3481 -4.81781 1.72317
rclavicle -6.01324e-015 3.37934e-015
rhumerus -41.4521 18.3989 -98.444
rradius 106.7
rwrist -31.5106
rhand 5.54404 -66.3719
rfingers 7.12502
rthumb 30.8888 93.7945
lclavicle -6.01324e-015 3.37934e-015
lhumerus -52.3995 23.184 66.5377
lradius 90.011
lwrist 56.9263
lhand -30.1719 12.7546
lfingers 7.12502
lthumb -3.48345 42.7059
rfemur -4.06586 17.4713 24.3517
rtibia 10.6104
rfoot -14.338 -23.1222
rtoes -0.217258
lfemur -0.0539484 -26.0966 -9.23967
ltibia 3.13915
lfoot -9.81656 31.2049
ltoes -9.30503
